<svg width="85" height="85" viewBox="0 0 85 85" fill="none" xmlns="http://www.w3.org/2000/svg">
<path fill-rule="evenodd" clip-rule="evenodd" d="M15.4499 19.4087L20.3733 74.631L42.4668 80.7643L64.6214 74.6222L69.5503 19.4087H15.4499Z" fill="#E44D26"/>
<path fill-rule="evenodd" clip-rule="evenodd" d="M42.5 30.6968H25.5169L25.6791 32.5138L27.3438 51.1776H42.5V44.405H33.5378L32.9187 37.4697H42.5V30.6968ZM34.9274 59.9658L34.4451 54.5644H27.6463L28.5952 65.1987L42.4688 69.0499L42.5 69.0412V61.9947L42.4703 62.0027L34.9274 59.9658Z" fill="#EBEBEB"/>
<path fill-rule="evenodd" clip-rule="evenodd" d="M42.5 23.9238V76.0697L60.4018 71.1066L64.6138 23.9238H42.5Z" fill="#F16529"/>
<path fill-rule="evenodd" clip-rule="evenodd" d="M42.4764 51.1778H50.8164L50.0302 59.9617L42.4764 62.0005V69.0466L56.361 65.1985L56.4629 64.0543L58.0545 46.2237L58.2197 44.405H42.4764V51.1778ZM42.4764 30.6968V37.4697H58.836L58.9718 35.9474L59.2804 32.5138L59.4422 30.6968H42.4764V30.6968Z" fill="white"/>
<path fill-rule="evenodd" clip-rule="evenodd" d="M27.0737 7.80223H23.9252V4.40173H20.4835V14.6993H23.9254V11.251H27.0737V14.6993H30.5155V4.40173H27.0735V7.80223H27.0737ZM32.0118 7.81651H35.0419V14.6993H38.4839V7.81651H41.5154V4.40173H32.0118V7.81651ZM48.8202 8.02004L46.6124 4.40173H43.0236V14.6993H46.3913V9.5952L48.7608 13.2567H48.8201L51.1879 9.5952V14.6993H54.6155V4.40173H51.0252L48.8202 8.02004ZM59.7716 11.2955V4.40173H56.3288V14.6993H64.612V11.2955H59.7716Z" fill="white"/>
</svg>
