<svg width="88" height="88" viewBox="0 0 88 88" fill="none" xmlns="http://www.w3.org/2000/svg">
<path fill-rule="evenodd" clip-rule="evenodd" d="M15.7797 20.1215L21.0707 77.4433L43.9998 83.6174L66.9285 77.4433L72.2203 20.1215H15.7797Z" fill="#1758A7"/>
<path fill-rule="evenodd" clip-rule="evenodd" d="M43.9995 24.7644V78.6933L44.0512 78.7072L62.6067 73.7108L66.8894 24.7644H43.9995Z" fill="#379AD6"/>
<path fill-rule="evenodd" clip-rule="evenodd" d="M43.9352 64.0299L43.9228 64.0335L36.2624 62.0808L35.7981 56.4574H28.6792L29.6077 67.3139L44.0002 71.6095V64.0115L43.9352 64.0299Z" fill="#E8E8E7"/>
<path fill-rule="evenodd" clip-rule="evenodd" d="M44.0002 45.8531V52.7503H44.0206L52.5288 52.7596L51.9827 61.7751L44.0206 64.0183L44.0002 64.0241V71.6016L44.0206 71.6078L44.0263 71.6095L58.4571 67.3946L60.3293 45.8531H44.0002Z" fill="#FBFBFA"/>
<path fill-rule="evenodd" clip-rule="evenodd" d="M27.6722 45.8531L28.214 52.7431L28.2148 52.7538L44.0002 52.7548V45.8531H27.6722Z" fill="#E5E4E2"/>
<path fill-rule="evenodd" clip-rule="evenodd" d="M27.6732 45.8532H43.9601L44.0002 45.8358V38.9498L27.6732 45.8532Z" fill="#EEEEEE"/>
<path fill-rule="evenodd" clip-rule="evenodd" d="M44.9544 38.6146L44.0002 39.0142V45.8516L60.836 38.6146H44.9544Z" fill="white"/>
<path fill-rule="evenodd" clip-rule="evenodd" d="M26.1587 31.7135L27.0119 38.6146H44.0002V31.7135H26.1587Z" fill="#E7E7E6"/>
<path fill-rule="evenodd" clip-rule="evenodd" d="M44.0002 38.6146L61.5043 31.7135H44.0002V38.6146ZM44.0048 38.6146H60.8073L61.5044 31.7135L44.0048 38.6146Z" fill="#F8F8F7"/>
<path fill-rule="evenodd" clip-rule="evenodd" d="M27.2532 15.1064H35.9643V11.6995H30.9867V8.28774H35.9643V4.55444H27.2532V15.1064V15.1064ZM39.6871 8.28791C40.8526 9.4534 41.4604 10.0111 43.1461 11.6971C42.1609 11.6971 39.6871 11.7007 39.6871 11.7003V15.1064H48.399V11.6995L44.9192 8.28774H48.399V4.55444H39.6871C39.6871 4.55444 39.6871 6.42822 39.6871 8.28791ZM60.7468 4.55444H52.0345C52.0345 4.55444 52.0345 6.42822 52.0345 8.28791C53.2 9.4534 53.808 10.0111 55.4938 11.6971C54.509 11.6971 52.0345 11.7007 52.0345 11.7003V15.1064H60.7468V11.6995L57.2669 8.28774H60.7468V4.55444Z" fill="white"/>
</svg>
