<svg width="107" height="107" viewBox="0 0 107 107" fill="none" xmlns="http://www.w3.org/2000/svg">
<path d="M45.9241 53.5527L45.9243 53.5516L45.2449 55.9589L45.9241 53.5527Z" fill="white"/>
<path d="M49.4175 58.7788L48.6689 58.7742L49.4175 58.7788Z" fill="white"/>
<path d="M49.225 62.3737H49.2256L44.7415 62.39L49.225 62.3737Z" fill="white"/>
<path d="M50.165 58.7831L49.4162 58.7787L50.165 58.7831Z" fill="white"/>
<path d="M49.6181 62.0681L50.3991 59.089L49.6181 62.0687V62.0681Z" fill="white"/>
<path d="M66.1283 48.3489L64.6733 55.1896L66.1283 48.3489Z" fill="white"/>
<path d="M62.3879 48.3489L61.283 53.4592L62.3879 48.3485V48.3489Z" fill="white"/>
<path d="M65.879 48.041H62.7672C62.5946 48.041 62.4232 48.1796 62.3866 48.3482L61.2817 53.4589L60.177 58.5699C60.1407 58.7385 59.9695 58.8769 59.7967 58.8769H57.9089H57.5944C55.4155 58.8769 55.6674 57.3694 56.114 55.3047C56.1184 55.284 56.1227 55.2637 56.1269 55.2424L56.1758 54.982C56.1792 54.9653 56.1823 54.9486 56.185 54.9333L56.2847 54.4033L56.3913 53.8355C56.4237 53.6644 56.4728 53.414 56.5052 53.2566L57.007 50.803L57.5098 48.3493C57.5445 48.18 57.4312 48.041 57.2582 48.041H54.0645C53.8923 48.041 53.7209 48.18 53.6858 48.3489L52.9988 51.6069L52.3121 54.8644C52.3115 54.866 52.3111 54.8681 52.3111 54.8694L52.2473 55.1722C51.4561 58.7832 51.6659 62.2271 55.965 62.3347C56.0354 62.3368 56.0897 62.3374 56.0897 62.3374H62.8376C63.0105 62.3374 63.1812 62.1987 63.2171 62.0298L64.6727 55.1895L66.1277 48.3486C66.1638 48.1796 66.052 48.041 65.879 48.041Z" fill="white"/>
<path d="M78.2924 58.9122C78.4651 58.9122 78.5783 59.0506 78.5436 59.2199L78.2412 60.6965" fill="white"/>
<path d="M77.9397 62.1743L78.2414 60.6968L77.9392 62.1747C77.9392 62.1743 77.9397 62.1743 77.9397 62.1743Z" fill="white"/>
<path d="M77.5608 62.4848C77.5614 62.4848 77.562 62.4844 77.5624 62.4844C76.6465 62.4917 73.8946 62.5128 71.8264 62.5128C74.3435 62.5128 77.5608 62.4852 77.5608 62.4852V62.4848Z" fill="white"/>
<path d="M69.9703 57.0103C69.9677 56.8485 70.1519 56.5697 70.3245 56.5697L69.936 56.5635C69.7611 58.3246 69.9703 57.0103 69.9703 57.0103Z" fill="white"/>
<path d="M72.11 62.5121C72.0902 62.5121 72.0699 62.5121 72.0501 62.5125C72.0697 62.5121 72.0902 62.5121 72.11 62.5121Z" fill="white"/>
<path d="M78.2924 58.9122C78.4651 58.9122 78.5783 59.0506 78.5436 59.2199L78.2412 60.6965L78.1921 60.9373" fill="white"/>
<path d="M72.5861 62.5116C72.5615 62.5116 72.5374 62.5116 72.5128 62.512C72.5374 62.5116 72.5615 62.5116 72.5861 62.5116Z" fill="white"/>
<path d="M72.7744 62.5111C72.7113 62.5111 72.6482 62.5115 72.5861 62.5115C72.6484 62.5115 72.7115 62.5111 72.7744 62.5111Z" fill="white"/>
<path d="M73.5708 62.5088C73.3192 62.5096 73.068 62.5107 72.82 62.5111C73.068 62.5107 73.3194 62.5096 73.5708 62.5088Z" fill="white"/>
<path d="M77.5631 62.4844C76.8918 62.4896 75.2346 62.5021 73.5819 62.5084C75.2337 62.5026 76.8914 62.4898 77.5631 62.4844Z" fill="white"/>
<path d="M77.9397 62.1751L78.1925 60.9375L77.9392 62.1757C77.9392 62.1753 77.9397 62.1753 77.9397 62.1747V62.1751Z" fill="white"/>
<path d="M26.7673 57.0473L27.2505 54.9045L26.698 57.3538L26.1678 59.8487L26.6326 57.6617C26.6685 57.4924 26.7293 57.2159 26.7673 57.0473Z" fill="#131B28"/>
<path d="M32.5524 48.0051H29.1351C28.9623 48.0051 28.7899 48.1433 28.7512 48.3113L28.4273 49.7414L28.1032 51.1721C28.0651 51.3403 28.1753 51.4782 28.3481 51.4782H31.7917C31.9643 51.4782 32.1361 51.3401 32.1731 51.1714L32.4864 49.7412L32.7997 48.3121V48.3117C32.8364 48.1433 32.7253 48.0051 32.5524 48.0051Z" fill="white"/>
<path d="M31.8089 52.7626V52.7622L30.8068 57.3989L31.8089 52.7626Z" fill="white"/>
<path d="M21.8819 68.1255C21.8819 68.1255 23.6046 68.1474 24.6994 68.1474C23.8679 68.1474 22.4938 68.1323 21.8804 68.1252C21.8811 68.1252 21.8815 68.1255 21.8819 68.1255Z" fill="#131B28"/>
<path d="M27.7339 52.762L27.2501 54.9045L27.7339 52.762Z" fill="#131B28"/>
<path d="M31.5616 52.4553H28.1176C27.945 52.4553 27.7723 52.5935 27.7343 52.7621L27.2505 54.9048L26.7673 57.0475C26.7293 57.216 26.6683 57.4925 26.6323 57.6615L26.1675 59.8488L25.703 62.0358C25.6668 62.2042 25.5926 62.477 25.5375 62.6408C25.5375 62.6408 24.894 64.5553 23.8123 64.5336C23.7663 64.5325 23.7216 64.5321 23.6773 64.5311C23.1534 64.5208 22.7413 64.5135 22.7413 64.5135H22.7404C22.5682 64.511 22.3945 64.6458 22.3544 64.8134L21.9971 66.3154L21.6403 67.8161C21.6002 67.9839 21.7087 68.1225 21.88 68.1252C22.4936 68.1323 23.8675 68.1477 24.699 68.1477C27.401 68.1477 28.8254 66.6508 29.7383 62.3434L30.8068 57.3995L31.8089 52.7625C31.8457 52.5935 31.7341 52.4555 31.5616 52.4553Z" fill="white"/>
<path d="M80.487 62.3375C80.3141 62.3375 80.2019 62.199 80.2385 62.0297L82.8293 49.8942" fill="white"/>
<path d="M84.0874 62.0292L85.1354 56.8494L84.0874 62.0292Z" fill="white"/>
<path d="M80.2759 62.1837C80.255 62.0993 80.2671 61.892 80.3039 61.7227L81.5338 55.9623L80.2383 62.0301C80.2019 62.1992 80.3139 62.3378 80.4865 62.3378H80.8013C80.6282 62.3376 80.2972 62.2684 80.2759 62.1837Z" fill="white"/>
<path d="M83.883 62.2683C83.7887 62.3064 83.5703 62.3375 83.3973 62.3375H83.712C83.8846 62.3375 84.0543 62.199 84.0882 62.0293L84.1511 61.7214C84.1164 61.8907 83.977 62.2301 83.883 62.2683Z" fill="white"/>
<path d="M84.6123 59.4394L85.075 57.1536C85.0746 57.155 85.0746 57.1569 85.0742 57.158L84.6123 59.4394Z" fill="white"/>
<path d="M94.835 50.7072L94.9777 51.2969C95.017 51.4658 94.9079 51.6027 94.7357 51.6031" fill="white"/>
<path d="M84.1503 61.7218L84.6115 59.4399L84.1503 61.7218Z" fill="white"/>
<path d="M94.6931 50.1031L94.8344 50.7071L94.6931 50.1031Z" fill="white"/>
<path d="M85.0742 57.1534C85.1085 56.9844 85.1657 56.71 85.2012 56.5428L85.6953 54.2283L85.1358 56.8498L85.0742 57.1534Z" fill="white"/>
<path d="M82.8719 49.6952C82.8374 49.8584 82.7935 50.0649 82.7639 50.2013L81.5344 55.9618L82.8297 49.8939L82.8719 49.6952Z" fill="white"/>
<path d="M94.9769 51.2968L94.834 50.707L94.6927 50.1031L94.621 49.7973C94.3416 48.7106 93.5203 48.0832 91.7372 48.0832L88.9613 48.0803L86.4046 48.0774H86.1851H83.5277C83.3553 48.0774 83.1843 48.2153 83.149 48.3846L83.0215 48.9856L82.8715 49.6956L82.8297 49.8945L81.5342 55.9624L80.3045 61.7228C80.268 61.8923 80.256 62.0994 80.2767 62.1838C80.2976 62.2685 80.6291 62.3376 80.8021 62.3376H83.3969C83.5699 62.3376 83.7887 62.3065 83.8826 62.2685C83.9766 62.2304 84.116 61.8908 84.1505 61.7218L84.6119 59.4397L85.0736 57.1582C85.0738 57.1573 85.074 57.1553 85.0744 57.1538L85.136 56.8501L85.6955 54.2286L86.1897 51.9133C86.2263 51.7451 86.3962 51.6076 86.5688 51.6071L94.7347 51.603C94.9071 51.6023 95.0162 51.4654 94.9769 51.2968Z" fill="white"/>
<path d="M105.489 45.9648C105.316 45.966 105.034 45.9671 104.861 45.9671H102.247C102.074 45.9671 101.853 46.0839 101.755 46.2264L95.9754 54.6941C95.8778 54.837 95.7662 54.8155 95.7278 54.6472L95.3027 52.7818C95.2645 52.6132 95.0912 52.4757 94.9188 52.4757H91.2031C91.03 52.4757 90.9278 52.6113 90.9751 52.7775L92.6398 58.61C92.6875 58.7761 92.691 59.0495 92.6482 59.2167L91.9224 62.0397C91.8793 62.207 91.9857 62.3441 92.1587 62.3441H95.8308C96.0032 62.3441 96.18 62.207 96.2227 62.0397L96.9491 59.2167C96.9917 59.0493 97.1121 58.7991 97.216 58.661L106.599 46.2076C106.703 46.0695 106.647 45.9575 106.474 45.9585L105.489 45.9648Z" fill="white"/>
<path d="M75.9702 53.2694V53.2659C75.9485 53.4533 75.7754 53.5908 75.6026 53.5908H70.8919C70.7291 53.5908 70.6463 53.4801 70.6701 53.3434C70.6716 53.3394 70.672 53.3359 70.6745 53.3325C70.6745 53.3325 70.6729 53.333 70.6714 53.3338C70.6724 53.3284 70.6724 53.3235 70.6741 53.3181C70.6741 53.3181 70.6829 53.2849 70.6956 53.2379C71.1454 52.0416 72.062 51.2567 73.7844 51.2567C75.7236 51.2571 76.1017 52.2044 75.9702 53.2694ZM74.588 47.8323C68.5414 47.8323 67.1084 51.5025 66.3045 55.2067C65.5007 58.9822 65.5701 62.5124 71.8271 62.5124H72.049C72.0691 62.512 72.0889 62.512 72.1088 62.512H72.2841H72.3483H72.5123C72.537 62.5115 72.5612 62.5115 72.5857 62.5115C72.6484 62.5115 72.7113 62.5111 72.7742 62.5111H72.8187C73.0664 62.5107 73.3178 62.5097 73.5692 62.5088H73.5819C75.2346 62.5024 76.8918 62.4896 77.5635 62.4844C77.7347 62.4819 77.9027 62.3435 77.9382 62.1757L78.1915 60.9377L78.2406 60.6965L78.5428 59.22C78.5777 59.0506 78.4644 58.9122 78.2916 58.9122H72.6664C70.4292 58.9122 69.7646 58.3176 70.0093 56.5699H79.0015L79.0007 56.5707C79.0032 56.5707 79.0051 56.5699 79.0072 56.5699C79.1499 56.5672 79.2822 56.4688 79.3342 56.3377C79.3441 56.3124 79.3526 56.2863 79.356 56.2594L79.3549 56.2602C80.6899 51.2241 80.3073 47.8325 74.5874 47.8325L74.588 47.8323Z" fill="white"/>
<path d="M46.0092 53.2504L45.9241 53.5516C45.9241 53.5526 45.9239 53.5526 45.9239 53.5526L45.2449 55.9589L44.5661 58.3649C44.5191 58.5311 44.3394 58.6669 44.1663 58.6669H40.5724C37.8466 58.6669 37.1827 56.535 37.8466 53.39C38.5102 50.1736 39.8115 48.174 42.4945 47.9713C46.1611 47.695 46.8944 50.2737 46.0092 53.2504ZM48.4737 58.4819C48.4737 58.4819 50.1682 54.3677 50.5531 51.9913C51.0779 48.8101 49.4852 44.197 43.3333 44.197C37.2164 44.197 34.5604 48.6016 33.5468 53.3898C32.5334 58.2126 33.8613 62.4422 39.9432 62.4077L44.7415 62.39L49.2256 62.3737C49.3985 62.372 49.5751 62.2353 49.6189 62.0683L50.4001 59.0886C50.4436 58.9212 50.3381 58.7837 50.1654 58.7829L49.4166 58.7785L48.6683 58.7741C48.5212 58.7729 48.4373 58.6782 48.4549 58.552C48.4582 58.5292 48.4633 58.5058 48.4737 58.4819Z" fill="white"/>
<path d="M78.7543 55.7282C78.7543 55.8421 78.6621 55.9345 78.548 55.9345C78.4341 55.9345 78.342 55.8421 78.342 55.7282C78.342 55.6145 78.4341 55.5226 78.548 55.5226C78.6619 55.5226 78.7543 55.6145 78.7543 55.7282Z" fill="white"/>
<path d="M1.76653 50.379C0.0775221 52.8066 0.287969 55.9647 1.57803 58.5442C1.60875 58.6061 1.64093 58.6669 1.6727 58.7279C1.69297 58.7664 1.71199 58.8059 1.7331 58.8439C1.74501 58.8667 1.75838 58.889 1.77071 58.9108C1.79266 58.9519 1.81523 58.991 1.83801 59.0312C1.87813 59.1018 1.9193 59.172 1.9611 59.2422C1.9843 59.2809 2.00728 59.3193 2.03132 59.358C2.07792 59.433 2.12557 59.5076 2.17426 59.5816C2.19453 59.6132 2.21439 59.6449 2.23529 59.6755C2.30258 59.7758 2.37133 59.8761 2.44218 59.9745C2.44406 59.977 2.44615 59.9795 2.44803 59.982C2.45932 59.9979 2.47165 60.0134 2.48293 60.0293C2.54417 60.1139 2.6077 60.1975 2.67144 60.2803C2.69505 60.3103 2.71888 60.3404 2.74249 60.3707C2.79954 60.4426 2.85764 60.5139 2.91678 60.585C2.93894 60.6115 2.96109 60.6382 2.98345 60.6644C3.06266 60.7576 3.14374 60.8508 3.2265 60.9419C3.22796 60.9436 3.22984 60.9455 3.23131 60.9469C3.23465 60.9509 3.23758 60.9532 3.2405 60.9569C3.32117 61.0451 3.40372 61.1314 3.48752 61.2175C3.51343 61.2441 3.53998 61.2708 3.56652 61.2974C3.6313 61.3626 3.69713 61.4263 3.76359 61.4907C3.79055 61.5162 3.8173 61.5425 3.84426 61.5672C3.93308 61.6508 4.02273 61.7329 4.11426 61.813C4.11594 61.8146 4.11698 61.8159 4.11865 61.8165C4.13412 61.8303 4.15021 61.8437 4.16568 61.8564C4.24634 61.9264 4.32847 61.9958 4.41102 62.0639C4.44467 62.0911 4.47873 62.1181 4.51259 62.145C4.58009 62.1992 4.64843 62.2524 4.71718 62.3049C4.75355 62.3327 4.78991 62.3605 4.82648 62.3881C4.90234 62.4437 4.97883 62.4988 5.05595 62.5525C5.08416 62.573 5.11133 62.5925 5.13954 62.6119C5.14727 62.6173 5.15438 62.6232 5.16232 62.6284C5.23567 62.6786 5.31028 62.7275 5.3851 62.7757C5.41728 62.7973 5.44926 62.8192 5.48165 62.8401C5.59638 62.9126 5.71279 62.9843 5.83065 63.0539C5.86263 63.0721 5.89502 63.0901 5.927 63.1082C6.01352 63.1582 6.10066 63.2073 6.18885 63.2551C6.2365 63.2809 6.28561 63.3051 6.33368 63.3295C6.39617 63.3624 6.45802 63.3954 6.52114 63.4269C6.53556 63.4343 6.5504 63.4411 6.56461 63.448C6.58989 63.4604 6.6156 63.4723 6.6413 63.4852C6.73953 63.5323 6.83838 63.578 6.93827 63.6228C6.95959 63.6322 6.98007 63.6416 7.00118 63.6508C7.11549 63.7007 7.23106 63.7492 7.34767 63.795C7.37568 63.8062 7.40389 63.8169 7.4321 63.8282C7.53994 63.8696 7.64924 63.9107 7.75895 63.9492C7.77295 63.954 7.78633 63.9586 7.80012 63.9632C7.92071 64.0054 8.04234 64.0445 8.1648 64.0825C8.19406 64.0911 8.22332 64.1005 8.25278 64.1091C8.37755 64.1467 8.50064 64.1914 8.62937 64.2152C16.7973 65.7047 19.1699 59.3068 19.1699 59.3068C17.1773 61.9028 13.6402 62.5877 10.2889 61.8253C10.1619 61.7966 10.0388 61.7571 9.91484 61.7204C9.88328 61.711 9.85256 61.7016 9.82142 61.6919C9.70042 61.6547 9.58067 61.6159 9.46134 61.5747C9.44504 61.5691 9.42853 61.5628 9.41181 61.5569C9.30502 61.5193 9.19948 61.4798 9.09415 61.4393C9.06448 61.4274 9.0348 61.4163 9.00513 61.4044C8.88977 61.3588 8.77524 61.3114 8.66218 61.2616C8.63878 61.2518 8.61662 61.2414 8.59364 61.2311C8.49646 61.1872 8.40033 61.1429 8.30419 61.0968C8.27661 61.0834 8.24881 61.0702 8.22081 61.0566C8.14578 61.0201 8.07118 60.9812 7.99719 60.9429C7.94746 60.9168 7.89709 60.892 7.84798 60.8648C7.75728 60.8163 7.66846 60.7657 7.57985 60.7143C7.54976 60.6974 7.51946 60.6813 7.48915 60.664C7.3715 60.5946 7.25509 60.5227 7.13994 60.45C7.10818 60.4297 7.07704 60.4082 7.04569 60.3873C6.9623 60.3333 6.87913 60.2786 6.79742 60.222C6.77025 60.204 6.74392 60.1839 6.71737 60.1657C6.63838 60.1099 6.56022 60.0533 6.48248 59.996C6.44737 59.9701 6.41268 59.9432 6.3784 59.9173C6.30735 59.8627 6.2365 59.8082 6.16649 59.7515C6.13493 59.7264 6.10317 59.7012 6.07203 59.6759C5.983 59.6025 5.89502 59.5292 5.80808 59.4537C5.7991 59.4456 5.78907 59.4378 5.77924 59.4295C5.68541 59.3467 5.59283 59.2621 5.50171 59.177C5.47517 59.1517 5.44947 59.1273 5.42355 59.1018C5.35584 59.0376 5.28938 58.9728 5.22418 58.9064C5.19806 58.8803 5.17173 58.8544 5.14602 58.8284C5.06285 58.7432 4.98134 58.6571 4.9013 58.5695C4.89733 58.5651 4.89315 58.5614 4.88918 58.5566C4.80454 58.4642 4.72199 58.3695 4.64091 58.274C4.61896 58.2479 4.59765 58.2226 4.57591 58.1969C4.51551 58.1242 4.45575 58.0506 4.39744 57.976C4.3755 57.9495 4.35355 57.9219 4.33182 57.8945C4.2616 57.8032 4.19284 57.7125 4.12555 57.6199C2.26496 55.082 1.59642 51.5815 3.08355 48.7069" fill="white"/>
<path d="M7.00932 48.3339C5.78781 50.0917 5.85427 52.4444 6.80703 54.3034C6.9669 54.6149 7.14642 54.9173 7.34725 55.2051C7.53011 55.4674 7.73304 55.7794 7.97588 55.9901C8.06407 56.087 8.15602 56.1817 8.25006 56.2745C8.27389 56.2989 8.29813 56.3221 8.32237 56.3462C8.41349 56.4344 8.50628 56.5215 8.6022 56.6059C8.60617 56.6093 8.60973 56.613 8.6137 56.6158C8.61474 56.617 8.61579 56.6174 8.61641 56.6187C8.72258 56.7115 8.83209 56.8011 8.94347 56.8891C8.96813 56.9079 8.99259 56.9278 9.01766 56.947C9.12926 57.0325 9.24295 57.1167 9.35977 57.1967C9.36332 57.1993 9.36625 57.2016 9.36959 57.2045C9.421 57.2398 9.47367 57.273 9.52571 57.3071C9.55078 57.3234 9.57461 57.3407 9.59969 57.356C9.68286 57.4093 9.76729 57.4613 9.85318 57.5113C9.8653 57.5188 9.87722 57.5248 9.88892 57.532C9.9629 57.5746 10.0379 57.6166 10.1132 57.6573C10.1393 57.6722 10.166 57.6851 10.1928 57.6989C10.2448 57.7261 10.2966 57.7537 10.3495 57.7802C10.3573 57.784 10.3654 57.7875 10.3731 57.7909C10.4808 57.844 10.5894 57.895 10.7002 57.9432C10.7238 57.9537 10.7483 57.9631 10.7725 57.9731C10.8609 58.0107 10.9506 58.0473 11.0404 58.082C11.0787 58.0964 11.1171 58.1102 11.1554 58.1242C11.2369 58.1545 11.319 58.1821 11.4015 58.2099C11.439 58.2218 11.4755 58.2339 11.5129 58.2454C11.6304 58.2818 11.7464 58.328 11.8688 58.3482C18.1752 59.3932 19.6314 54.5376 19.6314 54.5376C18.3187 56.4275 15.7773 57.3297 13.0651 56.6256C12.9447 56.594 12.826 56.5596 12.7081 56.5224C12.672 56.5113 12.6364 56.4996 12.6007 56.4877C12.5169 56.4605 12.4335 56.4314 12.3508 56.4016C12.3129 56.388 12.2751 56.374 12.2379 56.3598C12.1472 56.3249 12.0578 56.2889 11.9689 56.2511C11.9447 56.2406 11.9202 56.2314 11.8964 56.2206C11.785 56.1723 11.6755 56.1209 11.5673 56.068C11.5117 56.0406 11.4571 56.0118 11.4024 55.984C11.3708 55.9675 11.3389 55.9512 11.3071 55.9349C11.2369 55.8967 11.1671 55.8574 11.0981 55.8172C11.0818 55.8078 11.0649 55.7991 11.0484 55.789C10.9629 55.7391 10.8787 55.6877 10.7955 55.6348C10.7698 55.6183 10.7451 55.6005 10.7194 55.5838C10.6645 55.5481 10.6095 55.5119 10.5556 55.4753C10.4394 55.3953 10.3261 55.3113 10.2147 55.226C10.189 55.2057 10.1631 55.1861 10.138 55.1658C8.95079 54.2285 8.00994 52.9475 7.56251 51.4952C7.09354 49.9889 7.19448 48.298 8.00681 46.9258" fill="white"/>
<path d="M11.4187 46.8058C10.6987 47.8654 10.6279 49.1815 11.1276 50.3519C11.6544 51.5941 12.734 52.5686 13.9942 53.0304C14.0462 53.0498 14.0981 53.067 14.1507 53.085C14.1737 53.0921 14.1965 53.0998 14.2197 53.1067C14.2939 53.1301 14.3677 53.1573 14.4444 53.1717C17.9265 53.8446 18.8711 51.3847 19.1225 51.0227C18.2951 52.2139 16.9047 52.4998 15.1988 52.0858C15.064 52.0528 14.9158 52.0043 14.7861 51.9583C14.6195 51.899 14.4554 51.8313 14.2958 51.7548C13.993 51.6091 13.7041 51.4325 13.4364 51.2304C11.91 50.0722 10.9614 47.8624 11.9577 46.0629" fill="white"/>
</svg>
